<?xml version="1.0" encoding="UTF-8" standalone="no"?>
<svg
   id="Layer_2"
   data-name="Layer 2"
   viewBox="0 0 512 511.99998"
   version="1.1"
   sodipodi:docname="Ultimate ERP - LOGO ICON A.svg"
   width="512"
   height="512"
   inkscape:version="1.2.2 (732a01da63, 2022-12-09)"
   xmlns:inkscape="http://www.inkscape.org/namespaces/inkscape"
   xmlns:sodipodi="http://sodipodi.sourceforge.net/DTD/sodipodi-0.dtd"
   xmlns="http://www.w3.org/2000/svg"
   xmlns:svg="http://www.w3.org/2000/svg">
  <sodipodi:namedview
     id="namedview38"
     pagecolor="#505050"
     bordercolor="#eeeeee"
     borderopacity="1"
     inkscape:showpageshadow="0"
     inkscape:pageopacity="0"
     inkscape:pagecheckerboard="0"
     inkscape:deskcolor="#505050"
     showgrid="false"
     inkscape:zoom="0.93309856"
     inkscape:cx="204.1585"
     inkscape:cy="184.33208"
     inkscape:window-width="1600"
     inkscape:window-height="847"
     inkscape:window-x="-8"
     inkscape:window-y="-8"
     inkscape:window-maximized="1"
     inkscape:current-layer="Layer_2" />
  <defs
     id="defs4">
    <style
       id="style2">
      .cls-1 {
        fill: #ed1c24;
      }

      .cls-2 {
        fill: #201e5c;
      }
    </style>
  </defs>
  <g
     id="Layer_1-2"
     data-name="Layer 1"
     transform="matrix(0.99996094,0,0,0.99996094,-2.4939999e-7,71.40721)">
    <g
       id="g34">
      <g
         id="g22">
        <path
           class="cls-1"
           d="M 0,50.72 V 0 h 21.01 v 50.09 c 0,12.73 5.31,17.83 14.11,17.83 8.8,0 14.01,-5.09 14.01,-17.83 V 0 H 69.82 V 50.72 C 69.82,72.9 56.88,85.31 34.91,85.31 12.94,85.31 0,72.9 0,50.72 Z"
           id="path6" />
        <path
           class="cls-1"
           d="m 92.03,0 h 20.16 V 85.31 H 92.03 Z"
           id="path8" />
        <path
           class="cls-1"
           d="m 173.32,82.03 c -3.5,2.23 -8.7,3.29 -14,3.29 -14.75,0 -23.35,-7.21 -23.35,-21.96 V 44.05 h -8.38 V 28.98 h 8.38 V 14.02 h 20.16 v 14.96 h 13.16 v 15.07 h -13.16 v 19.1 c 0,4.24 2.44,6.58 6.05,6.58 2.23,0 4.46,-0.64 6.15,-1.8 l 4.99,14.11 z"
           id="path10" />
        <path
           class="cls-1"
           d="M 181.49,10.72 C 181.49,4.67 186.37,0 193.8,0 c 7.43,0 12.31,4.35 12.31,10.4 0,6.37 -4.88,11.03 -12.31,11.03 -7.43,0 -12.31,-4.67 -12.31,-10.72 z m 2.24,17.08 h 20.16 v 57.51 h -20.16 z"
           id="path12" />
        <path
           class="cls-1"
           d="M 317.75,52.42 V 85.31 H 297.59 V 55.7 c 0,-8.28 -3.4,-11.78 -8.7,-11.78 -5.84,0 -10.09,3.92 -10.09,12.84 V 85.3 H 258.64 V 55.69 c 0,-8.28 -3.29,-11.78 -8.7,-11.78 -5.94,0 -10.18,3.92 -10.18,12.84 V 85.29 H 219.6 V 27.8 h 19.21 v 6.05 c 4.35,-4.67 10.4,-7 17.19,-7 7.85,0 14.54,2.86 18.57,9.02 4.57,-5.73 11.67,-9.02 19.95,-9.02 13.37,0 23.24,7.75 23.24,25.57 z"
           id="path14" />
        <path
           class="cls-1"
           d="m 387.06,52.42 v 32.89 h -18.78 v -8.38 c -2.87,5.52 -8.6,8.38 -16.98,8.38 -13.79,0 -21.43,-7.75 -21.43,-17.72 0,-10.61 7.75,-17.19 25.57,-17.19 h 11.46 c -0.32,-5.84 -4.24,-9.13 -12.2,-9.13 -5.52,0 -11.67,1.91 -15.6,4.99 l -6.79,-13.69 c 6.58,-4.35 16.34,-6.68 25.36,-6.68 18.68,0 29.4,8.27 29.4,26.53 z M 366.89,65.9 v -4.99 h -8.7 c -6.47,0 -8.81,2.33 -8.81,5.84 0,3.51 2.76,5.83 7.53,5.83 4.46,0 8.38,-2.12 9.98,-6.68 z"
           id="path16" />
        <path
           class="cls-1"
           d="m 442.14,82.03 c -3.5,2.23 -8.7,3.29 -14.01,3.29 -14.75,0 -23.34,-7.21 -23.34,-21.96 V 44.05 h -8.38 V 28.98 h 8.38 V 14.02 h 20.16 v 14.96 h 13.16 v 15.07 h -13.16 v 19.1 c 0,4.24 2.44,6.58 6.05,6.58 2.23,0 4.46,-0.64 6.15,-1.8 l 4.99,14.11 z"
           id="path18" />
        <path
           class="cls-1"
           d="m 511.68,60.7 h -41.8 c 1.7,5.84 6.68,9.23 14.11,9.23 5.62,0 9.34,-1.59 13.27,-4.99 l 10.61,11.03 c -5.52,6.16 -13.58,9.34 -24.51,9.34 -20.48,0 -33.74,-12.63 -33.74,-29.82 0,-17.19 13.48,-29.6 31.62,-29.6 16.98,0 30.78,10.82 30.78,29.82 0,1.49 -0.21,3.4 -0.32,4.99 z M 469.55,50.09 h 23.56 c -1.06,-6.05 -5.52,-9.87 -11.78,-9.87 -6.26,0 -10.61,3.82 -11.78,9.87 z"
           id="path20" />
      </g>
      <g
         id="g30">
        <path
           class="cls-2"
           d="M 130.01,329.44 V 369.2 H 0 V 212.83 h 130.01 v 39.76 H 51.83 v 18.32 h 66.12 v 37.98 H 51.83 v 20.55 z"
           id="path24" />
        <path
           class="cls-2"
           d="m 248.07,329.88 h -14.3 v 39.31 H 181.05 V 212.82 h 75.29 c 43.56,0 71.26,22.78 71.26,58.97 0,22.56 -10.72,39.54 -29.49,49.14 l 32.84,48.25 h -56.29 l -26.59,-39.31 z m 4.91,-76.4 h -19.21 v 36.63 h 19.21 c 14.52,0 21.45,-6.92 21.45,-18.32 0,-11.4 -6.93,-18.32 -21.45,-18.32 z"
           id="path26" />
        <path
           class="cls-2"
           d="m 512,271.8 c 0,36.19 -27.7,58.97 -71.26,58.97 h -22.57 v 38.42 H 365.45 V 212.82 h 75.29 c 43.56,0 71.26,22.78 71.26,58.97 z m -53.17,0 c 0,-11.39 -6.93,-18.32 -21.45,-18.32 h -19.21 v 36.63 h 19.21 c 14.52,0 21.45,-6.92 21.45,-18.32 z"
           id="path28" />
      </g>
      <rect
         class="cls-2"
         x="0"
         y="139.46001"
         width="512"
         height="19.209999"
         rx="1.72"
         ry="1.72"
         id="rect32" />
    </g>
  </g>
</svg>
