<?xml version="1.0" encoding="UTF-8" standalone="no"?>
<svg
   id="Layer_2"
   data-name="Layer 2"
   viewBox="0 0 512 512"
   version="1.1"
   sodipodi:docname="scm-dark.svg"
   inkscape:version="1.2.2 (732a01da63, 2022-12-09)"
   xmlns:inkscape="http://www.inkscape.org/namespaces/inkscape"
   xmlns:sodipodi="http://sodipodi.sourceforge.net/DTD/sodipodi-0.dtd"
   xmlns="http://www.w3.org/2000/svg"
   xmlns:svg="http://www.w3.org/2000/svg">
  <sodipodi:namedview
     id="namedview44"
     pagecolor="#505050"
     bordercolor="#eeeeee"
     borderopacity="1"
     inkscape:showpageshadow="0"
     inkscape:pageopacity="0"
     inkscape:pagecheckerboard="0"
     inkscape:deskcolor="#505050"
     showgrid="false"
     inkscape:zoom="0.95155581"
     inkscape:cx="182.33297"
     inkscape:cy="255.37125"
     inkscape:window-width="1600"
     inkscape:window-height="847"
     inkscape:window-x="-8"
     inkscape:window-y="-8"
     inkscape:window-maximized="1"
     inkscape:current-layer="Layer_2" />
  <defs
     id="defs4">
    <style
       id="style2">
      .cls-1 {
        fill: #fff;
      }

      .cls-2 {
        fill: #ed1c24;
      }

      .cls-3 {
        fill: #201e5c;
      }
    </style>
  </defs>
  <g
     id="Layer_1-2"
     data-name="Layer 1"
     transform="matrix(1.0708586,0,0,1.0708586,-16.640015,-18.123752)">
    <g
       id="g40">
      <g
         id="g38">
        <g
           id="g14">
          <path
             class="cls-3"
             d="m 486.39,87.79 c -11.7,-15.68 -35.44,-20.24 -69.53,-13.42 -6.1,1.16 -12.54,2.71 -19.25,4.66 C 392.26,75.03 386.69,71.36 381,67.87 347.3,47.34 307.71,35.59 265.44,35.85 144.03,36.6 45.87,135.97 46.62,257.38 c 0.08,12.56 1.22,24.88 3.37,36.81 6.4,-7.78 13.36,-15.67 20.76,-23.67 4.51,-4.9 9.24,-9.87 14.03,-14.77 0.17,-99.78 80.95,-181.16 180.89,-181.78 23.99,-0.15 46.94,4.36 67.96,12.7 6.46,2.54 12.7,5.47 18.72,8.69 3.09,1.66 6.13,3.38 9.11,5.21 2.53,1.55 5.01,3.16 7.43,4.83 5.65,-2.28 11.18,-4.33 16.55,-6.21 9.62,-3.31 18.74,-6 27.19,-7.96 6.83,-1.56 13.16,-2.72 19.09,-3.43 3.19,-0.36 6.22,-0.6 9.08,-0.67 1.12,-0.12 2.24,-0.13 3.36,-0.13 14.35,-0.09 24.68,3.27 29.77,10.07 5.48,7.37 5.55,19.02 0.55,33.85 -0.88,2.58 -1.93,5.34 -3.14,8.15 3.29,5.64 6.29,11.4 9.08,17.27 1.38,-2.7 2.66,-5.34 3.76,-7.93 11.78,-26.03 12.66,-46.66 2.2,-60.61 z"
             id="path8" />
          <path
             class="cls-2"
             d="m 176.66,396.54 c -7.36,-0.17 -14.73,-1.28 -21.87,-3.42 0.73,-0.3 1.5,-0.69 2.27,-1.03 l 7.79,-3.55 7.02,4.84 c 1.58,1.11 3.17,2.18 4.79,3.17 z"
             id="path10" />
          <path
             class="cls-2"
             d="m 470.76,173.2 c -2.37,-5.85 -4.97,-11.55 -7.84,-17.13 -2.79,-5.5 -5.82,-10.85 -9.08,-16.03 -8.01,-12.85 -17.29,-24.84 -27.66,-35.74 -10.56,1.81 -22.63,5.04 -35.66,9.55 -2.33,0.79 -4.69,1.66 -7.06,2.53 19.69,16.47 35.87,37.05 47.2,60.38 2.6,5.35 4.92,10.81 6.98,16.44 2.17,5.86 4.04,11.83 5.59,17.96 1.63,6.4 2.92,12.96 3.81,19.6 1.14,7.92 1.73,15.96 1.78,24.16 0.62,100.34 -80.53,182.54 -180.91,183.16 -25.18,0.16 -49.23,-4.83 -71.13,-14.02 -6.08,-2.53 -11.96,-5.41 -17.7,-8.6 -5.42,-2.96 -10.69,-6.23 -15.76,-9.74 -5.39,2.48 -10.7,4.85 -15.93,7.02 -8.61,3.59 -16.94,6.75 -24.85,9.44 -5.97,2.06 -11.75,3.84 -17.3,5.35 -35.19,9.62 -60.65,8.61 -69.82,-3.69 -9.17,-12.26 -3.42,-37.06 17.14,-69.48 3.08,-4.92 6.54,-10.03 10.36,-15.26 7.94,-11.05 17.35,-22.77 28.31,-35.04 3.98,-4.49 8.18,-9.07 12.62,-13.72 14.29,-15.09 30.75,-30.85 49.3,-47.06 4.06,-3.56 8.2,-7.12 12.45,-10.69 5.77,2.61 12.8,1.94 18.1,-2.29 2.75,-2.19 4.67,-5.08 5.66,-8.2 v -0.04 c 0.84,-2.41 1.1,-4.94 0.77,-7.47 v -0.08 c -0.12,-1.2 -0.4,-2.37 -0.8,-3.53 -0.59,-1.86 -1.58,-3.68 -2.91,-5.35 -1.37,-1.7 -2.97,-3.09 -4.77,-4.09 -1.13,-0.69 -2.3,-1.23 -3.55,-1.61 h -0.04 c -2.34,-0.8 -4.86,-1.06 -7.31,-0.73 h -0.12 c -3.15,0.37 -6.17,1.55 -8.84,3.71 -5.49,4.35 -7.63,11.32 -6.11,17.72 -4.21,3.56 -8.39,7.16 -12.53,10.8 -14.69,12.88 -28.87,26.26 -42.16,39.79 -4.75,4.81 -9.35,9.66 -13.82,14.5 -11.16,12.08 -21.46,24.15 -30.56,35.98 -3.93,5.19 -7.67,10.31 -11.18,15.34 v 0.04 C 18.47,376.19 6.75,411.39 22.9,433.1 c 8.27,11.1 22.72,16.57 42.5,16.45 15,-0.09 33.05,-3.39 53.77,-9.93 5.66,-1.74 11.56,-3.76 17.65,-6.06 5.11,3.78 10.38,7.32 15.84,10.59 33.67,20.55 73.22,32.23 115.47,31.97 121.37,-0.75 219.55,-100.11 218.8,-221.48 -0.14,-21.96 -3.49,-43.12 -9.64,-63.09 -1.9,-6.25 -4.08,-12.37 -6.57,-18.38 z"
             id="path12" />
        </g>
        <g
           id="g36">
          <g
             id="g26">
            <path
               class="cls-3"
               d="m 401.89,309.39 c -6.85,-21.15 -37.97,-20.1 -43.5,1.19 -4.8,-0.46 -13.11,1.51 -17,-1.19 L 318.23,287.5 h -46.05 v 12.2 h 40.89 c 1.69,0 21.06,20.93 24.81,22.84 l 19.51,0.46 c 2.28,3.11 3.38,6.99 6.17,9.91 16.81,17.18 45.96,0 38.33,-23.53 z m -23.67,17.86 c -11.56,-1.87 -11.15,-19.65 0.69,-20.93 15.72,-1.74 15.4,23.53 -0.69,20.93 z"
               id="path16" />
            <path
               class="cls-3"
               d="m 402.85,191.92 c -2.47,-24.17 -39.11,-26.82 -44.46,-2.97 l -20.51,0.37 -24.81,22.84 h -40.89 v 12.24 h 46.05 c 1.83,0 21.7,-22.39 25.77,-23.16 4.07,-0.73 10.05,0.46 14.39,0.05 8.22,26.87 47.38,19.24 44.46,-9.37 z m -24.49,13.53 c -11.56,-2.01 -11.38,-18.96 -0.14,-20.79 16.45,-2.7 16.17,23.58 0.14,20.79 z"
               id="path18" />
            <path
               class="cls-3"
               d="m 356.52,123.66 c -18.41,-17.77 -47.88,4.52 -36.37,27.37 l -19.97,18.64 h -28.01 v 12.24 h 33.17 l 23.71,-21.79 c 23.44,13.52 46.92,-17.77 27.46,-36.46 z m -15.81,27.37 c -12.43,0.27 -14.76,-19.01 -1.74,-21.11 14.89,-2.38 16.54,20.83 1.74,21.11 z"
               id="path20" />
            <path
               class="cls-3"
               d="m 337.69,348.82 c -3.56,0.41 -6.17,2.1 -9.5,2.74 l -22.84,-21.57 h -33.17 v 12.2 h 28.01 l 19.97,18.69 c -9.82,20.74 12.06,41.94 32.3,30.38 20.93,-11.97 10.19,-45.28 -14.76,-42.45 z m 4.3,33.26 c -13.98,1.69 -15.95,-19.19 -3.02,-21.06 13.94,-2.01 17,19.33 3.02,21.06 z"
               id="path22" />
            <path
               class="cls-3"
               d="M 384.2,249.49 H 272.17 v 12.88 H 384.2 c 6.4,24.44 43.04,20.33 44.46,-4.8 0.05,-0.5 0.05,-1.05 0.05,-1.55 0,-26.04 -37.28,-31.89 -44.5,-6.53 z m 27.65,15.12 c -9.64,6.44 -21.06,-4.48 -14.67,-14.67 1.05,-1.69 3.56,-3.75 5.53,-4.16 12.47,-2.56 18.73,12.38 9.14,18.82 z"
               id="path24" />
          </g>
          <g
             id="g34">
            <path
               class="cls-3"
               d="m 242.07,367.9 c -15.03,16.95 -35.19,26.54 -56.04,28.3 -3.13,0.3 -6.25,0.43 -9.37,0.34 -7.36,-0.17 -14.73,-1.28 -21.87,-3.42 -11.77,-3.42 -22.99,-9.55 -32.75,-18.32 -13.14,-11.81 -25.73,-25.3 -38.27,-38.48 5.69,-7.28 11.99,-14.77 18.71,-22.3 2.61,-2.95 5.35,-5.99 8.26,-9.08 0.98,1.03 1.97,2.01 2.91,3.04 12.07,12.63 23.89,25.94 36.56,36.86 40.62,34.97 95.8,-20.68 60.83,-60.79 -8.09,-9.25 -17.29,-17.98 -26.54,-26.76 14.04,-4.02 25.04,-15.07 29.02,-29.07 9.63,9.2 19.22,18.41 27.91,28.08 28.08,31.38 28.55,79.97 0.64,111.6 z"
               id="path28" />
            <path
               class="cls-3"
               d="m 155.26,261.44 c 12.93,12.63 26.97,24.83 38.7,37.93 15.88,19.73 -8.01,44.82 -28.42,29.71 -13.75,-14.09 -26.29,-26.14 -40.07,-39.43 z"
               id="path30" />
            <path
               class="cls-3"
               d="m 260.01,185.84 v 56.08 c -1.84,-0.86 -3.72,-2.01 -5.52,-3.55 -18.62,-15.71 -34.72,-38.22 -53.68,-53.72 -31.73,-25.95 -74.95,-0.22 -70.05,37.59 -8.18,7.28 -17.58,16.09 -25.37,23.58 2.83,-44.82 23.84,-84.72 55.82,-112.29 1.46,-0.17 2.95,-0.34 4.45,-0.43 43.92,-3 68.32,24.87 94.35,52.74 z"
               id="path32" />
          </g>
        </g>
      </g>
    </g>
  </g>
</svg>
