<?xml version="1.0" encoding="UTF-8"?> <svg xmlns="http://www.w3.org/2000/svg" width="200" height="150" viewBox="0 0 200 150" fill="none"><g clip-path="url(#clip0_3273_4144)"><path d="M25.5762 103.002H33.2542L32.7922 105.356H25.1142L25.5762 103.002ZM24.4762 109.602H33.1882L32.7042 112H21.1542L24.2342 96.6H35.4762L34.9922 98.998H26.5882L24.4762 109.602ZM34.9506 112L43.0686 103.266L42.8706 104.894L38.3606 96.6H41.3966L44.7846 102.914L43.5086 102.848L49.2726 96.6H52.5286L44.8946 104.872L44.9606 103.244L49.7566 112H46.6986L43.1126 105.29L44.4106 105.356L38.3826 112H34.9506ZM60.4259 112.22C58.8565 112.22 57.5145 111.941 56.3999 111.384C55.2852 110.827 54.4272 110.057 53.8259 109.074C53.2392 108.077 52.9459 106.933 52.9459 105.642C52.9459 104.337 53.1659 103.127 53.6059 102.012C54.0605 100.883 54.7059 99.9 55.5419 99.064C56.3779 98.228 57.3752 97.5753 58.5339 97.106C59.6925 96.622 60.9905 96.38 62.4279 96.38C63.7625 96.38 64.9359 96.6 65.9479 97.04C66.9599 97.48 67.7372 98.118 68.2799 98.954L66.2119 100.692C65.7865 100.105 65.2439 99.658 64.5839 99.35C63.9239 99.042 63.1392 98.888 62.2299 98.888C61.2472 98.888 60.3599 99.0567 59.5679 99.394C58.7759 99.7313 58.1012 100.208 57.5439 100.824C56.9865 101.425 56.5612 102.129 56.2679 102.936C55.9745 103.728 55.8279 104.571 55.8279 105.466C55.8279 106.302 56.0112 107.043 56.3779 107.688C56.7445 108.333 57.2872 108.832 58.0059 109.184C58.7245 109.536 59.6045 109.712 60.6459 109.712C61.5112 109.712 62.3105 109.565 63.0439 109.272C63.7919 108.979 64.4519 108.531 65.0239 107.93L66.6959 109.734C65.9479 110.585 65.0312 111.215 63.9459 111.626C62.8752 112.022 61.7019 112.22 60.4259 112.22ZM74.1222 103.002H81.8002L81.3382 105.356H73.6602L74.1222 103.002ZM73.0222 109.602H81.7342L81.2502 112H69.7002L72.7802 96.6H84.0222L83.5382 98.998H75.1342L73.0222 109.602ZM85.5385 112L88.6185 96.6H91.4785L88.8825 109.58H96.9345L96.4505 112H85.5385ZM99.8084 112L102.888 96.6H105.748L103.152 109.58H111.204L110.72 112H99.8084ZM118.5 103.002H126.178L125.716 105.356H118.038L118.5 103.002ZM117.4 109.602H126.112L125.628 112H114.078L117.158 96.6H128.4L127.916 98.998H119.512L117.4 109.602ZM129.917 112L132.997 96.6H135.351L142.369 108.546L141.467 108.436L143.821 96.6H146.659L143.579 112H141.225L134.229 100.054L135.131 100.164L132.755 112H129.917ZM156.637 112.22C155.068 112.22 153.726 111.941 152.611 111.384C151.497 110.827 150.639 110.057 150.037 109.074C149.451 108.077 149.157 106.933 149.157 105.642C149.157 104.337 149.377 103.127 149.817 102.012C150.272 100.883 150.917 99.9 151.753 99.064C152.589 98.228 153.587 97.5753 154.745 97.106C155.904 96.622 157.202 96.38 158.639 96.38C159.974 96.38 161.147 96.6 162.159 97.04C163.171 97.48 163.949 98.118 164.491 98.954L162.423 100.692C161.998 100.105 161.455 99.658 160.795 99.35C160.135 99.042 159.351 98.888 158.441 98.888C157.459 98.888 156.571 99.0567 155.779 99.394C154.987 99.7313 154.313 100.208 153.755 100.824C153.198 101.425 152.773 102.129 152.479 102.936C152.186 103.728 152.039 104.571 152.039 105.466C152.039 106.302 152.223 107.043 152.589 107.688C152.956 108.333 153.499 108.832 154.217 109.184C154.936 109.536 155.816 109.712 156.857 109.712C157.723 109.712 158.522 109.565 159.255 109.272C160.003 108.979 160.663 108.531 161.235 107.93L162.907 109.734C162.159 110.585 161.243 111.215 160.157 111.626C159.087 112.022 157.913 112.22 156.637 112.22ZM170.334 103.002H178.012L177.55 105.356H169.872L170.334 103.002ZM169.234 109.602H177.946L177.462 112H165.912L168.992 96.6H180.234L179.75 98.998H171.346L169.234 109.602Z" fill="black"></path><path d="M19.874 132L24.242 122.2H26.482L30.864 132H28.484L24.9 123.348H25.796L22.198 132H19.874ZM22.058 129.9L22.66 128.178H27.7L28.316 129.9H22.058ZM50.434 132.168C49.678 132.168 48.9734 132.047 48.32 131.804C47.676 131.552 47.116 131.197 46.64 130.74C46.164 130.283 45.7907 129.746 45.52 129.13C45.2587 128.514 45.128 127.837 45.128 127.1C45.128 126.363 45.2587 125.686 45.52 125.07C45.7907 124.454 46.164 123.917 46.64 123.46C47.1254 123.003 47.69 122.653 48.334 122.41C48.978 122.158 49.6827 122.032 50.448 122.032C51.2974 122.032 52.0627 122.181 52.744 122.48C53.4347 122.769 54.0134 123.199 54.48 123.768L53.024 125.112C52.688 124.729 52.3147 124.445 51.904 124.258C51.4934 124.062 51.0454 123.964 50.56 123.964C50.1027 123.964 49.6827 124.039 49.3 124.188C48.9174 124.337 48.586 124.552 48.306 124.832C48.026 125.112 47.8067 125.443 47.648 125.826C47.4987 126.209 47.424 126.633 47.424 127.1C47.424 127.567 47.4987 127.991 47.648 128.374C47.8067 128.757 48.026 129.088 48.306 129.368C48.586 129.648 48.9174 129.863 49.3 130.012C49.6827 130.161 50.1027 130.236 50.56 130.236C51.0454 130.236 51.4934 130.143 51.904 129.956C52.3147 129.76 52.688 129.466 53.024 129.074L54.48 130.418C54.0134 130.987 53.4347 131.421 52.744 131.72C52.0627 132.019 51.2927 132.168 50.434 132.168ZM68.5459 132L72.9139 122.2H75.1539L79.5359 132H77.1559L73.5719 123.348H74.4679L70.8699 132H68.5459ZM70.7299 129.9L71.3319 128.178H76.3719L76.9879 129.9H70.7299ZM94.5526 132V122.2H99.0046C100.069 122.2 101.007 122.405 101.819 122.816C102.631 123.217 103.265 123.782 103.723 124.51C104.18 125.238 104.409 126.101 104.409 127.1C104.409 128.089 104.18 128.953 103.723 129.69C103.265 130.418 102.631 130.987 101.819 131.398C101.007 131.799 100.069 132 99.0046 132H94.5526ZM96.8206 130.138H98.8926C99.546 130.138 100.111 130.017 100.587 129.774C101.072 129.522 101.445 129.167 101.707 128.71C101.977 128.253 102.113 127.716 102.113 127.1C102.113 126.475 101.977 125.938 101.707 125.49C101.445 125.033 101.072 124.683 100.587 124.44C100.111 124.188 99.546 124.062 98.8926 124.062H96.8206V130.138ZM122.205 126.148H126.923V127.912H122.205V126.148ZM122.373 130.18H127.707V132H120.119V122.2H127.525V124.02H122.373V130.18ZM143.512 132V122.2H145.388L149.56 129.116H148.566L152.668 122.2H154.53L154.558 132H152.43L152.416 125.462H152.808L149.532 130.964H148.51L145.164 125.462H145.64V132H143.512ZM173.319 132V127.996L173.837 129.368L169.525 122.2H171.933L175.237 127.702H173.851L177.169 122.2H179.395L175.083 129.368L175.587 127.996V132H173.319Z" fill="black"></path><path d="M130.724 51.868C130.195 51.868 129.691 51.7674 129.188 51.5786C128.143 51.1633 127.086 50.8362 126.016 50.5718V64.2498C126.016 64.917 125.651 65.5335 125.084 65.8732L101.017 79.7528C100.917 79.8156 100.815 79.8534 100.715 79.8912V85C101.71 84.9247 102.666 84.6225 103.535 84.1191L127.602 70.227C129.729 69.0065 131.051 66.7162 131.051 64.2498V51.8426C130.937 51.868 130.837 51.868 130.724 51.868Z" fill="#F58124"></path><path d="M75.0916 65.8732C74.5124 65.5335 74.1601 64.917 74.1601 64.2498V50.5593C73.0398 50.7102 72.0073 50.9243 71.0383 51.2137C70.6229 51.3392 70.2075 51.4024 69.792 51.4024C69.5654 51.4024 69.3388 51.3895 69.125 51.3392V64.2498C69.125 66.7163 70.4466 69.0065 72.5741 70.227L96.6412 84.1191C97.5099 84.6225 98.4664 84.9247 99.4607 85V79.8912C99.36 79.8534 99.2594 79.8031 99.1587 79.7528L75.0916 65.8732Z" fill="#438FD3"></path><path d="M83.4227 60.2612L99.4588 69.5102V74.7827C98.7037 74.7071 97.9863 74.4805 97.3317 74.103L80.9051 64.6151C79.2059 63.6464 78.1484 61.809 78.1484 59.8459V50.3077H78.1863C79.8855 50.3077 81.5846 50.4211 83.1832 50.5596V59.8459C83.1832 60.0222 83.2714 60.1731 83.4227 60.2612Z" fill="#3EB43D"></path><path d="M122.026 49.9302V59.8459C122.026 61.809 120.968 63.6464 119.269 64.6151L102.842 74.103C102.188 74.4805 101.47 74.7071 100.715 74.7827V69.5102L116.751 60.2612C116.902 60.1731 116.991 60.0222 116.991 59.8459V50.0059C117.934 49.9053 118.929 49.8549 119.974 49.8549C120.666 49.8549 121.359 49.8799 122.026 49.9302Z" fill="#438FD3"></path><path d="M112.748 50.5848C111.15 50.8367 109.778 51.0629 108.545 51.0629C108.545 51.0629 108.545 51.0629 108.532 51.0629C108.33 51.0629 108.142 51.0504 107.965 51.0504V54.9136L100.715 59.0912V64.5903C101.218 64.5147 101.71 64.3384 102.15 64.0869L110.936 59.0159C112.207 58.2735 113 56.9145 113 55.442V50.5469C112.912 50.5598 112.837 50.5723 112.748 50.5848Z" fill="#3EB43D"></path><path d="M92.2066 50.9119C91.3258 51.0379 90.5453 51.0379 90.0542 51.0379C89.1605 51.0379 88.1912 50.9751 87.1719 50.8994V55.442C87.1719 56.9145 87.9649 58.2735 89.2362 59.0159L98.0223 64.0869C98.4627 64.3384 98.9538 64.5147 99.457 64.5903V59.0912L92.2066 54.9136V50.9119Z" fill="#F58124"></path><path d="M120.524 38.7058C121.819 40.9468 128.337 41.3606 130.18 38.7175C133.021 34.637 130.375 30.057 125.421 30.4758C122.209 30.7499 119.369 36.7049 120.524 38.7058ZM130.169 48.7677C131.675 49.3613 132.593 46.6784 131.968 45.1864C131.958 45.1622 131.948 45.1381 131.938 45.1143C131.386 43.8048 129.988 43.7155 128.568 43.6695C117.127 43.2986 114.41 40.8119 120.324 29.3956C120.978 28.1341 121.616 26.8886 120.758 25.7562C120.742 25.7347 120.726 25.7137 120.709 25.6926C119.723 24.3964 117.057 23.893 116.686 25.4793C114.296 35.6844 104.078 43.5022 106.156 47.0995C108.023 50.3322 117.6 43.8087 130.169 48.7677Z" fill="#F58124"></path><path d="M79.5692 38.391C80.8635 36.1495 77.9625 30.2994 74.751 30.0249C69.7962 29.6061 67.151 34.1865 69.9912 38.2666C71.8343 40.9101 78.4134 40.3918 79.5692 38.391ZM83.463 25.0097C83.225 23.4093 80.441 23.9557 79.4616 25.2433C79.4456 25.264 79.4296 25.2846 79.414 25.3057C78.5558 26.4381 79.1772 27.6922 79.8477 28.9451C85.2468 39.0352 84.4507 42.6313 71.6042 43.219C70.1843 43.2841 68.7859 43.3543 68.2339 44.6634C68.2238 44.6879 68.2136 44.7125 68.2031 44.7371C67.5735 46.2392 68.4703 48.7988 70.0302 48.3278C80.0662 45.2943 91.9472 50.2307 94.0248 46.6334C95.8921 43.4007 85.4524 38.3711 83.463 25.0097Z" fill="#3EB43D"></path><path d="M100.137 26.7289C102.726 26.7289 106.344 21.2918 104.975 18.3746C102.861 13.8753 97.5705 13.8753 95.4559 18.3746C94.0875 21.2918 97.826 26.7289 100.137 26.7289ZM113.677 23.4093C114.944 22.4028 113.079 20.2658 111.473 20.0615C111.447 20.0584 111.421 20.0549 111.395 20.0518C109.985 19.8751 109.209 21.0403 108.459 22.2468C102.418 31.966 98.9046 33.075 91.9721 22.2468C91.206 21.05 90.4457 19.8751 89.0356 20.0518C89.0095 20.0549 88.9829 20.0584 88.9564 20.0615C87.3403 20.2678 85.5713 22.324 86.7595 23.4389C94.4054 30.6105 96.0695 43.3647 100.225 43.3647C103.959 43.3647 103.096 31.812 113.677 23.4093Z" fill="#438FD3"></path></g><defs><clipPath id="clip0_3273_4144"><rect width="160" height="120" fill="white" transform="translate(20 15)"></rect></clipPath></defs></svg> 